<svg width="978" height="301" viewBox="0 0 978 301" fill="none" xmlns="http://www.w3.org/2000/svg">
<path fill-rule="evenodd" clip-rule="evenodd" d="M213.971 299.002V190.544L326.699 0.101562H229.343L167.855 103.436L106.794 0.101562H0.470703L113.199 189.263V299.002H213.971ZM410.407 246.908H523.989L544.058 299.002H648.246L517.584 0.101562H418.52L287.858 299.002H390.338L410.407 246.908ZM763.393 225.131L786.024 199.938L860.749 299.002H977.32L851.782 131.618L971.342 0.101562H861.603L763.393 108.56V0.101562H664.329V299.002H763.393V225.131Z" fill="url(#paint0_linear)"/>
<path fill-rule="evenodd" clip-rule="evenodd" d="M536.004 259.487L545.807 238.125L578.633 300.002H356.057L393.697 233.414L399.216 252.611L423.025 212.78L427.994 237.798L467.206 172.004L502.412 233.736L514.308 209.791L536.004 259.487Z" fill="white"/>
<path d="M444.121 93.7062C444.133 93.6799 444.147 93.6514 444.163 93.6206C444.278 93.3924 444.473 93.0446 444.772 92.6165C445.37 91.7609 446.382 90.5863 448.012 89.3992C451.235 87.0526 457.065 84.5175 467.378 84.5175C477.733 84.5175 483.564 86.8997 486.77 89.1585C488.39 90.2992 489.386 91.4408 489.97 92.3034C490.263 92.7362 490.448 93.0935 490.554 93.3384C490.593 93.4279 490.62 93.4972 490.636 93.5452V107.079V115.775L485.041 110.235L480.627 105.866L481.294 111.534L484.105 135.401L478.971 133.401L476.763 132.758C476.763 132.758 476.316 133.62 476.291 133.69L476.287 133.7C476.257 133.783 476.221 133.884 476.187 133.984L476.186 133.985L476.159 134.063C476.067 134.326 475.95 134.652 475.795 135.026C475.483 135.777 475.025 136.694 474.35 137.576C473.029 139.302 470.953 140.834 467.378 140.834C463.755 140.834 461.778 139.363 460.613 137.849C460.011 137.066 459.632 136.269 459.405 135.661C459.292 135.36 459.22 135.113 459.177 134.949C459.156 134.867 459.142 134.806 459.134 134.77C459.13 134.752 459.128 134.74 459.127 134.734L459.127 134.732L458.715 132.391L456.12 133.401L450.946 135.416L453.464 111.516L454.051 105.943L449.716 110.235L444.121 115.775L444.121 107.906V105.006V94.2279V93.7062Z" fill="white"/>
<path fill-rule="evenodd" clip-rule="evenodd" d="M413.304 86.2139C418.464 94.5864 428.783 101.152 439.87 106.066V107.079V120.622V125.468L443.626 121.749L448.642 116.783L446.391 138.157L446.07 141.203L449.413 139.901L455.662 137.467C455.974 138.151 456.414 138.941 457.027 139.737C458.784 142.023 461.984 144.352 467.378 144.352C472.821 144.352 476.09 141.877 477.941 139.458C478.482 138.75 478.909 138.043 479.245 137.396L482.667 138.728L484.815 139.565L485.448 139.811L485.619 139.878L485.663 139.895L485.674 139.899L485.677 139.9L485.677 139.901L486.583 138.309C485.678 139.901 485.677 139.901 485.677 139.901L489.061 141.218L488.698 138.139L486.193 116.861L491.131 121.749L494.887 125.468V120.622V107.079V106.14C506.036 101.218 516.434 94.6285 521.62 86.2139C522.273 85.1545 521.808 84.0161 520.847 83.4224C519.912 82.8452 518.524 82.7854 517.475 83.5092C513.534 86.2263 509.213 88.666 504.955 90.3268C501.293 91.7553 497.808 92.5566 494.714 92.5531C494.67 92.4258 494.616 92.2898 494.554 92.1472C494.366 91.7157 494.083 91.1824 493.679 90.5853C492.869 89.3881 491.56 87.9129 489.526 86.4802C485.426 83.592 478.566 81 467.378 81C456.15 81 449.288 83.7851 445.204 86.7586C443.181 88.2316 441.887 89.717 441.092 90.8565C440.694 91.4259 440.42 91.9094 440.241 92.263C440.186 92.3724 440.14 92.4694 440.102 92.5529C437.035 92.538 433.589 91.7388 429.969 90.3268C425.711 88.666 421.39 86.2263 417.449 83.5092C416.399 82.7854 415.012 82.8452 414.077 83.4224C413.115 84.0161 412.651 85.1545 413.304 86.2139ZM490.636 93.3985H490.803V93.3991H490.636L490.636 93.3985ZM439.87 102.052V96.0686C436.016 96.0157 432.007 95.0107 428.156 93.5086C426.167 92.7327 424.187 91.8113 422.25 90.7894C426.839 95.0956 433.023 98.8554 439.87 102.052ZM444.163 93.6206C444.147 93.6514 444.133 93.6799 444.121 93.7062V94.2279V105.006V107.906L444.121 115.775L449.716 110.235L454.051 105.943L453.464 111.516L450.946 135.416L456.12 133.401L458.715 132.391L459.127 134.732L459.127 134.734C459.128 134.74 459.13 134.752 459.134 134.77C459.142 134.806 459.156 134.867 459.177 134.949C459.22 135.113 459.292 135.36 459.405 135.661C459.632 136.269 460.011 137.066 460.613 137.849C461.778 139.363 463.755 140.834 467.378 140.834C470.953 140.834 473.029 139.302 474.35 137.576C475.025 136.694 475.483 135.777 475.795 135.026C475.95 134.652 476.067 134.326 476.159 134.063L476.186 133.985L476.187 133.984C476.221 133.884 476.257 133.783 476.287 133.7L476.291 133.69C476.316 133.62 476.763 132.758 476.763 132.758L478.971 133.401L484.105 135.401L481.294 111.534L480.627 105.866L485.041 110.235L490.636 115.775V107.079V93.5452C490.62 93.4972 490.593 93.4279 490.554 93.3384C490.448 93.0935 490.263 92.7362 489.97 92.3034C489.386 91.4408 488.39 90.2992 486.77 89.1585C483.564 86.8997 477.733 84.5175 467.378 84.5175C457.065 84.5175 451.235 87.0526 448.012 89.3992C446.382 90.5863 445.37 91.7609 444.772 92.6165C444.473 93.0446 444.278 93.3924 444.163 93.6206ZM495.054 102.052C501.9 98.8554 508.084 95.0956 512.673 90.7894C510.737 91.8113 508.756 92.7327 506.767 93.5086C502.916 95.0107 498.908 96.0158 495.054 96.0686V102.052Z" fill="white"/>
<path d="M512.673 90.7894C508.084 95.0956 501.9 98.8554 495.054 102.052V96.0686C498.908 96.0158 502.916 95.0107 506.767 93.5086C508.756 92.7327 510.737 91.8113 512.673 90.7894Z" fill="white"/>
<path d="M439.87 96.0686V102.052C433.023 98.8554 426.839 95.0956 422.25 90.7894C424.187 91.8113 426.167 92.7327 428.156 93.5086C432.007 95.0107 436.016 96.0157 439.87 96.0686Z" fill="white"/>
<defs>
<linearGradient id="paint0_linear" x1="488.895" y1="0.101562" x2="488.895" y2="299.002" gradientUnits="userSpaceOnUse">
<stop stop-color="#219653"/>
<stop offset="1" stop-color="#37B96F" stop-opacity="0.72"/>
</linearGradient>
</defs>
</svg>
